<svg data-v-423bf9ae="" xmlns="http://www.w3.org/2000/svg" viewBox="0 0 252.19558314393953 60" class="font"><!----><!----><!----><g data-v-423bf9ae="" id="f24cdf04-6673-4cfa-9b6c-6403ca242e67" fill="white" transform="matrix(5.7526364568010235,0,0,5.7526364568010235,-2.6462156091743054,0)"><path d="M7.11 10.05L7.11 8.85C6.38 9.07 5.57 9.23 4.86 9.23C2.93 9.23 1.90 8.15 1.90 6.06C1.90 3.98 2.93 2.90 4.86 2.90C5.24 2.90 5.67 2.95 6.09 3.02L6.65 4.00L7.11 4.00L7.11 2.07C6.44 1.86 5.53 1.69 4.86 1.69C2.03 1.69 0.46 3.40 0.46 6.06C0.46 8.72 2.03 10.43 4.86 10.43C5.53 10.43 6.44 10.26 7.11 10.05ZM14.48 7C14.48 4.87 13.26 3.57 11.31 3.57C9.37 3.57 8.13 4.87 8.13 7C8.13 9.11 9.37 10.43 11.31 10.43C13.26 10.43 14.48 9.11 14.48 7ZM13.10 7C13.10 8.50 12.40 9.28 11.31 9.28C10.21 9.28 9.51 8.50 9.51 7C9.51 5.50 10.21 4.70 11.31 4.70C12.40 4.70 13.10 5.50 13.10 7ZM22.55 10.26L22.55 9.14C22.36 9.21 22.13 9.28 21.90 9.28C21.57 9.28 21.43 9.13 21.43 8.81L21.43 0L20.12 0L20.12 3.75C19.74 3.64 19.21 3.57 18.77 3.57C16.83 3.57 15.60 4.87 15.60 7C15.60 9.11 16.83 10.43 18.77 10.43C19.40 10.43 19.98 10.28 20.50 10.04C20.75 10.29 21.14 10.43 21.56 10.43C21.91 10.43 22.29 10.35 22.55 10.26ZM20.12 9.02C19.70 9.18 19.28 9.28 18.77 9.28C17.67 9.28 16.97 8.50 16.97 7C16.97 5.50 17.67 4.70 18.77 4.70C19.22 4.70 19.70 4.77 20.12 4.89ZM25.40 1.40C25.40 0.92 25.02 0.55 24.56 0.55C24.09 0.55 23.72 0.92 23.72 1.40C23.72 1.86 24.09 2.24 24.56 2.24C25.02 2.24 25.40 1.86 25.40 1.40ZM26.22 10.26L26.22 9.80L25.21 9.28L25.21 3.72L23.90 3.72L23.90 10.26ZM33.39 7C33.39 4.87 32.16 3.57 30.21 3.57C29.79 3.57 29.26 3.65 28.87 3.78L28.87 0L27.55 0L27.55 10.02C28.35 10.23 29.41 10.43 30.21 10.43C32.16 10.43 33.39 9.11 33.39 7ZM32.00 7C32.00 8.50 31.32 9.28 30.21 9.28C29.75 9.28 29.29 9.21 28.87 9.10L28.87 4.89C29.29 4.77 29.75 4.70 30.21 4.70C31.32 4.70 32.00 5.50 32.00 7ZM37.39 10.26L37.39 9.80L36.39 9.28L36.39 0L35.07 0L35.07 10.26ZM41.27 3.57C39.40 3.57 38.16 4.86 38.16 7C38.16 9.21 39.55 10.43 41.80 10.43C42.42 10.43 43.20 10.29 43.76 10.08L43.76 8.95C43.19 9.14 42.45 9.28 41.80 9.28C40.53 9.28 39.65 8.74 39.54 7.43L44.28 7.43C44.30 7.29 44.30 7.15 44.30 7C44.30 4.86 43.16 3.57 41.27 3.57ZM42.99 6.36L39.55 6.36C39.68 5.25 40.33 4.65 41.27 4.65C42.17 4.65 42.85 5.22 42.99 6.36Z"></path></g><!----><!----></svg>